<svg id="Layer_1" data-name="Layer 1" xmlns="http://www.w3.org/2000/svg" viewBox="0 0 1000 626.95"><defs><style>.cls-1{fill:#fff;}.cls-2{fill:#e20000;}</style></defs><polygon class="cls-1" points="6.09 164.61 0 164.61 0 0 164.61 0 164.61 6.09 6.09 6.09 6.09 164.61"/><polygon class="cls-1" points="170.06 626.95 0 626.95 0 456.89 6.09 456.89 6.09 620.86 170.06 620.86 170.06 626.95"/><polygon class="cls-1" points="1000 626.95 825.21 626.95 825.21 620.86 993.91 620.86 993.91 452.15 1000 452.15 1000 626.95"/><polygon class="cls-1" points="1000 174.79 993.91 174.79 993.91 6.09 825.21 6.09 825.21 0 1000 0 1000 174.79"/><path class="cls-1" d="M491.18,440.49a59.24,59.24,0,0,1,2.23,22.85,17.88,17.88,0,0,0-.23,4.44,28,28,0,0,1,.44,3.64,5.28,5.28,0,0,1-1.75,4.45,10,10,0,0,1-5,1.48c-3.13.38-6.18.88-9.29,1.4a40.89,40.89,0,0,1-10.41-.83c-3.94-.32-7.9-.17-11.85-.32-3.56-.13-7.12-.51-10.68-.57a47.2,47.2,0,0,0-5.83.19,14.72,14.72,0,0,1-5.83.5c-2.79-.92-3.45-4.06-3.53-6.65-.12-3.6,1.26-7.35,1.43-11s0-7.06.09-10.6c0-4,.86-7.5-.73-11.26a8.89,8.89,0,0,1-1.1-3.52c.05-1.6,1-3.11,1.08-4.75.1-1.41,0-2.82.1-4.22.18-2.12,1.32-3.88,1.53-6,.39-3.93-2-7.59-2-11.56,0-4.33,0-8.66-.13-13s-.41-8.5-.41-12.74c0-1.95,1.13-3.14,1.29-4.95.16-1.63-.69-3.3,0-4.91l4.19-2.48a17.89,17.89,0,0,1-5.11-10.85,29.4,29.4,0,0,1,.69-6.06,24,24,0,0,0-.56-7,24.94,24.94,0,0,1-.23-7.06,19.46,19.46,0,0,0,1-6.9,33.71,33.71,0,0,1-1-7.07c0-2.68.63-5.29.91-7.95a54.23,54.23,0,0,0-.53-15.42,33.55,33.55,0,0,1-.84-7.06c.08-2.61.5-5.2.54-7.83.09-5.19-.1-10.29.47-15.45a25.65,25.65,0,0,0-.21-7.11c-.28-1.58-.53-5.16-2.2-6-2-1-3.47,2-4.34,3.3-1.44,2.1-2.82,4.26-4.11,6.46-2.47,4.2-4.07,8.86-6.58,13l-5,3.2a33.43,33.43,0,0,1-3.7,10.67c-2.13,3.28-4.68,6.31-6.86,9.56-4.62,6.87-8.76,14-13,21.14s-8.28,14.05-12.65,20.93c-4.27,6.72-9.27,12.91-13.13,19.9-2.07,3.75-3.95,7.79-6.32,11.35-2.73,4.11-5.85,8-8.79,12-.77,4.18-3.89,7.26-5.94,10.81a41.92,41.92,0,0,1-3.7,5.62,18.64,18.64,0,0,1-5.13,4.35,20.25,20.25,0,0,1-5.36-7.36c-1.54-2.89-3.52-5.48-5.12-8.34-3.47-6.16-7.73-11.7-9.47-18.67-4.24-3.78-8.85-7.4-10.86-12.92a34.08,34.08,0,0,0-3.14-8c-1.74-2.63-3.67-5.1-5.32-7.8s-3.06-5.25-4.62-7.86a41.24,41.24,0,0,0-4.27-7,22.26,22.26,0,0,1-4.76-6.49c-1.17-2.7-1.95-5.56-3.16-8.24a57.82,57.82,0,0,1-6.24-7.3c-1.58-2.57-1.62-5.65-3.74-7.94a26.78,26.78,0,0,1-5.34-6.82,37.1,37.1,0,0,1-2.73-9.11,35.47,35.47,0,0,1-11.79-13.39c-1.47-2.94-2.44-6-4.18-8.81-1.6-2.58-3.17-5.91-6.18-6.94-4.15-1.42-2.6,2.91-2.54,5.3a79,79,0,0,0-.11,11,47.17,47.17,0,0,1,.5,10.35c-.11,1.89-.14,3.82-.37,5.69a22.91,22.91,0,0,1-1.49,4.65l0,0a7.43,7.43,0,0,1-.1,9.66c-1.12,1-2.67.73-4,1.3a4.24,4.24,0,0,0-2.41,3.85,23.7,23.7,0,0,1,4.33,4c1.09,1.76.46,4,1.09,5.9.76,2.34,2,4.42,2.54,6.87a28,28,0,0,1,.61,7.13c-.22,5-2.3,9.63-1.39,14.73a19.5,19.5,0,0,1,.06,6.6,11.43,11.43,0,0,0,.36,6.5c-1.66,6.1.7,11.87.7,17.94-1.23,3.9-1.95,8.17-5,11.09-1,1-3.32,1.74-2.5,3.47s3.7,1.37,5.22,1.77a61.63,61.63,0,0,1,2.1,13,35.28,35.28,0,0,1-1.29,13.44,3.68,3.68,0,0,0,.25,4.55,9.68,9.68,0,0,1,1.41,4.82c.13,3.86-1.35,7.6-1.61,11.43a50.5,50.5,0,0,1,1.81,9.43c.08,3.52-1.23,6.95-.94,10.44.44,5.23,2.6,13.65-4.76,15a57.8,57.8,0,0,1-10.19.06c-3.76,0-7.51.18-11.27.2s-7.23-.22-10.85-.18a28.62,28.62,0,0,1-9.63-2c-3.32,1.15-6.62,2.53-10,3.44a5.15,5.15,0,0,1-6.08-2.45,64.38,64.38,0,0,1,.89-21.49,22,22,0,0,1-2-8.56,25.54,25.54,0,0,1,.62-4,20.5,20.5,0,0,0,0-4.36,16,16,0,0,1,1-6.94c1-2.74-.4-5.12-1.25-7.69,1.37-9.69.2-19.45.26-29.18,0-4.73.22-9.46.47-14.18.29-4.94-.56-9.71-.44-14.65.24-9.91-.22-19.85-.27-29.76q0-7.67,0-15.32c0-3.74-.87-8.43,2.31-11.12a35,35,0,0,1-1.77-6.83,75.67,75.67,0,0,1,0-7.68c-.05-4.91-.3-9.84-.42-14.75a69.62,69.62,0,0,1,.13-7.78c.2-2.26,1.31-4.79,1.25-7,0-1.2-.64-2.55-.77-3.78a30.29,30.29,0,0,1-.08-3.81c.08-2.38.34-4.76.32-7.15-.06-5-1-10-.87-15,.06-2.55.54-5.05.62-7.59.06-2.28-.3-4.58-.43-6.86a51.6,51.6,0,0,1,0-7.25,31,31,0,0,0,.56-7.12c-.58-4.22-1.43-7.89,2.22-11.07.61-2.84-1.8-3.14-2.12-4.35a13.69,13.69,0,0,1,0-8.4,20.42,20.42,0,0,0-.52-8.93,15.56,15.56,0,0,1,4-7.68c2.3-2.34,4.18-3.59,3.72-7.24l-4.39-1.89c-1.82-2.35-3.44-4.73-.88-7.67,2.53.22,5.08.54,7.61.63a15.5,15.5,0,0,1,6.86.67c1.79,2-2.88,4.36-1.48,7.14a15.78,15.78,0,0,1,1.92,3.66,37.27,37.27,0,0,0,.84,4.31c2.19.37,5.39-3.7,7-5.18a4.73,4.73,0,0,0-.13-4.77c-1-1.38-2.75-2.19-2.85-4.11-.21-4.26,6.32-3.48,9-3.54q3.54-.06,7.08.21c2.22.18,4.16.8,6.31,1.13a27,27,0,0,0,6.47.42,33.09,33.09,0,0,0,6.24-1.76c3,2.09,5.43,4.22,9.22,4.25,2.94,0,5.81-2.58,8.7-1.38.24,1.13.06,2.29.78,3.26,1,1.27,2.38,2.29,3.36,3.61,2,2.66,3.48,5.64,5.67,8.13l-5.38,3a63.1,63.1,0,0,1,.26,10.91c4,2.89,3.9-8.25,5.45-9,2.13-1,4.27,2.54,5.28,3.77,1.93,2.34,3.59,4.84,5.3,7.33.29,2,.59,4,.89,6,2.15,3.26,5.21,5.79,7.57,8.92a31.13,31.13,0,0,1,3.11,5,34.47,34.47,0,0,0,2,4.59,46.52,46.52,0,0,0,3.44,3.44,25.52,25.52,0,0,1,3.08,4.56c2.05,3.8,4.21,7.49,6.4,11.21-1.24,1.48-6.26,6.44-1.83,7.45,1.23.27,2.32-.52,3.56.08a4.53,4.53,0,0,1,2.15,3.49c-.6,1.62-2.35,4.43-1.3,6.11s3.65.85,5.26.52c3.37,2.58,7,5.18,8.19,10.67-1,3.35-2.14,7.22-3.22,10.91,1.56,2.74,5.47-1.37,7.07-2.5a6.82,6.82,0,0,1,6.12,4.5,3.85,3.85,0,0,1-1,4.28c-.78.8-1.89,1.06-1.52,2.47l5.69,1a44.26,44.26,0,0,1,6.2,9.23c1.4,2.8,2.57,5.62,6.34,4.51,4.11-3,5.13-7.52,7.86-11.51s6.44-7.45,9.08-11.62a32.39,32.39,0,0,0,2.91-6.57,34.6,34.6,0,0,1,3.71-5.95,68.43,68.43,0,0,1,10-12.44,32.66,32.66,0,0,1,3.78-9.77c.92-1.6,2-3.09,3-4.6a22.72,22.72,0,0,0,2.11-4.56,48.58,48.58,0,0,1,12.63-16A39.74,39.74,0,0,1,390.94,193c3-4.36,5.73-8.89,9.07-13a83.76,83.76,0,0,0,8.3-11.59,77.17,77.17,0,0,1,8-12.73l-.05,0c.09-.11.19-.19.28-.3a7.3,7.3,0,0,1,4.7-2.43l.93-3.2c5.88-2.64,11.55.91,17.44-.62,5.1-1.32,9.6-2,13.87,1.47-.26,1.51-1.68,6.07.26,6.25,2.29.22,2.34-4.35,2.55-6.09,2.76-.56,5.56.08,8.32-.67a55.32,55.32,0,0,1,8.44-1.88,77.17,77.17,0,0,1,16.9,1c1.31.94,2.88,1.83,3,3.66a2.49,2.49,0,0,1-1.55,2.51,42.52,42.52,0,0,1,2.16,11.05c.19,4-.66,8-.74,12.06-.06,2.7.46,6.22-2.77,7.31a15.89,15.89,0,0,1-5.15,0l-5.91-.26c1.52,2.23,4.59,1.51,6.89,2.33a14.17,14.17,0,0,1,6.62,5.19,4.59,4.59,0,0,1,.46,3.9,20.38,20.38,0,0,0-.21,5.29,31.79,31.79,0,0,1,.16,9.64,51.54,51.54,0,0,1,.23,14.25c-.13,2.48.2,5,.06,7.45a21.41,21.41,0,0,1-1.93,5.59c-1.5,4.47.94,8.9,1.52,13.34a134.08,134.08,0,0,1,.86,14.59c.19,9.77-1.06,19.53-.49,29.26.58,10.09-.41,20.19,0,30.27-1.16,2.79-2.24,5.44-3.24,7.87,1.21,2.48,3.1,3.94,2.62,6.9a49.21,49.21,0,0,0,.55,10.57c.44,7.2,0,14.43.19,21.63.1,3.51.2,7,.18,10.54s-.57,7-.68,10.48.35,6.75.28,10.14a57.71,57.71,0,0,1-1.25,10.39c1.31,7.76,4.93,18.61-.59,25.41ZM168.61,309.56c.14.36.35.76.47.6C169.31,309.84,169,309.67,168.61,309.56ZM177,278.29c-.8-.62-.89-.6-1.84-.23C176,278.67,176,278.66,177,278.29Zm.12-21.63c-.79,2.48,1.3,1,2.07-.12C179.39,256.2,177.71,254.67,177.09,256.66Zm3.62-67.41c2.7.78,1.9-4.31,1.9-5.6C181.91,184.65,178.19,188.52,180.71,189.25Zm1.14,237.23c1.29-1.22,1.64-7.18-1.07-6.6-2.12.45-.07,5.73,1.05,6.6Zm.72-100.54c2,.56,2.68-2.49,1.05-3.06a1.53,1.53,0,0,0-1.75.81c-.42.9.31,1.52.7,2.26Zm-.38-97.32c-.74,1-.68,3.75,1.33,3C185.36,230.92,183.16,229,182.19,228.62Zm1.91-12.31c-1.12-1.31-2.93.83-1.94,2.14,1,0,3.09-.79,1.94-2.13Zm1,25c.4,1.26,3.94,2.09,4.57.9-.43-1.42-1.39-1.62-2.91-1.86-.89-.13-2.07-.25-1.68,1Zm2.46,43.42c-.36-1.83-1.24-.35-.66.86Zm4.94,159.71c.81-2.82-3-2.24-3.35.07-.08.6.41,2,1,2.08.93.15,1.91-1.58,2.36-2.14Zm.8-269.37c1.09,2.25,2.75-1.78,3.1-2.75a1.53,1.53,0,0,0-1.28-.52,1.59,1.59,0,0,0-1.2.71,2.68,2.68,0,0,0-.65,2.58Zm1.37,83.42c1.07,1.41,2.95.22.92-.5l-1,.51Zm.42-69.88c1.52,1.41,3,3.3,5.29,2.7,2-.52,4.91-1.9,3.72-4.33Zm5.72,18.27a13.27,13.27,0,0,0,6.29-2.72c2.35-1.92,1.59-3.35-1.3-3.5a7.3,7.3,0,0,0-5.38,1.88c-2.21,2-1.95,2.86.38,4.35Zm1,31c.74-2.38-1.63-1.65-2.84-1.24.85,1.94.69,2,2.83,1.26Zm1.37-77.56v0c1.39-1.17,3.83-2.79,4.14-4.53s-1.46-3.19-3-3.71a6.73,6.73,0,0,0-4.23,4.36C199.24,159.34,200.54,160.13,203.25,160.3Zm3.3,3.81a2,2,0,0,0,.09-2.24c-.66-.91-2.25-1-3.36-1.21.09,1,.05,2.6.75,3.26a2.48,2.48,0,0,0,2.52.19Zm2.1,93.94c-.9-.27-.94-.39-1.31.47.88.26.93.37,1.3-.47Zm2.63,70.62c-1.5-2-3,.42-3.62,1.94,2.26,0,2.32-.17,3.6-1.94Zm-.95-153.52a7.15,7.15,0,0,0,3.78.93c1.09-.19,1.67-1.16,2.49-1.81a10,10,0,0,0-3.24-6.63,3.3,3.3,0,0,0-2.84-.25,3.26,3.26,0,0,0-2,2.07,4.22,4.22,0,0,0,1.74,5.69Zm.81,239.67c2.44-1.32-1-5.39-2-6.55-.46,1.19-1,8.19,2,6.56ZM209.89,295c.05-1.39-1.26-1.26-.86.24l.84-.24Zm7.68-91.57c-3.38-.28-5.77,5.54-2.84,7.37a5.92,5.92,0,0,0,4.22-3.36c.73-1.53.79-3.84-1.41-4Zm-.47,17.83c-.27,2.6,4.12,4.63,4.53,1.42-.43-.95-.94-3.21-2.09-3.52-1.31-.35-2.34,1-2.46,2.1ZM230.2,200c1.58-2.11,1.57-4.91,3-7.09a4,4,0,0,0-.09-5.49,34,34,0,0,0-8.29-4.4c-2.28-1.15-5.34-3.36-7.56-.84a6.91,6.91,0,0,0,2.71,4.79,7.76,7.76,0,0,0,6.83,1.51c1.95-.14,3.59,1.05,2.72,3.16-.81,1.94-3.47,3.45-5,4.8-.87,4,3,3.69,5.72,3.56Zm-.51-28.06a25.63,25.63,0,0,0,4.67,4.4c1.72.84,2-.65,1.53-2.11C235.06,171.9,231.61,169,229.69,171.93Zm9.42,39.64c-1.1-1.18-2.47-3.63-4.44-2.65s-.84,3.28-.29,4.77Zm.26-20.27-.62-.09.21.7Zm2-24.74c1.37-.2,2.27-2.16,3-3.14-1.06-.58-2.5-2-3.83-1.66a2.6,2.6,0,0,0-1.69,2.78,2.42,2.42,0,0,0,2.51,2Zm3.7,38.8c-1.53.86-1.51,1,0,1.89Zm.41-.45a9.8,9.8,0,0,0,8.52-2.45c1.82-1.86,3.54-4.57,1.94-7.05a3.3,3.3,0,0,0-3.27-1.76c-1.73.26-1.82,1.48-2.44,2.85a16.14,16.14,0,0,1-2.78,4.07,7.5,7.5,0,0,0-2,4.34Zm.52,3.46c.21-.38-.14-.49-.5-.56.16.35.38.75.49.55Zm.88,62.49c.91,1.25,2.54.21.8-.45l-.81.44Zm3.69-47.45-1.06.27,1,.43Zm3.23,6.17c-.53,2.37,2.21,1,3.52.37-.91-1.08-3-2.82-3.54-.37Zm7.74,3.57a1.63,1.63,0,0,0,.26-2c-.42-.54-2.72-.77-3.88-1,.55,1.3,2.21,3.78,3.62,3ZM262,211c.11-1,.11-1-.67-1.59C260.62,210.37,260.55,211.31,262,211Zm3,57.87c1.34.1,5.15-2,3-3.37-.72-.47-2.29.19-2.85.7a1.62,1.62,0,0,0-.15,2.66Zm3.28-27.77c-1.73-1-1.93-1.07-3.81-.23,1.73,1.08,1.92,1.1,3.82.23Zm3.35-19.77a11.07,11.07,0,0,0-.41-5.79c-.76,2-1.55,3.94-2.31,5.92-.3.79-1.78,4.08.43,3.63,1.17-.23,2.06-2.8,2.3-3.78Zm7.48,53.85c.24-.86.36-.91-.44-1.3-.24.86-.37.92.44,1.28Zm3.35-26.13c1.88-.3.28-1.1-.86-.61Zm1.22,63.38c1.23-1.71,1.22-1.81.17-3.7-1.17,1.72-1.21,1.82-.16,3.68Zm9.81-18.85a3.23,3.23,0,0,0-4.69-.62c-1.49,1.32-.77,3.32-.1,4.91Zm-2.14-17.73c-1.36,1.32,0,2.75.63.83l-.63-.85Zm4.6-2.76a2.31,2.31,0,0,0-.1-3.33c-.56-.71-2.27-2-3.22-1.55-2.71,1.2,2,4.59,3.32,4.85Zm7.1,47.53a6.86,6.86,0,0,0,.44-5.5,19.35,19.35,0,0,0-4.11,3.92c-.61,1.08-1.29,3.82.46,4.13,1.25.22,2.65-1.6,3.22-2.58Zm-.22-26.71c1.26.13,3.64-.47,3.53-2.26s-2.88-1.86-4.05-2.22c-1.2.19-3,.54-2.89,2.09s2.29,2.24,3.41,2.36Zm-1.84,12.32c-.31.89-.43.93.45,1.24.3-.88.42-.92-.45-1.28Zm12.57,22.9c1.9-1.12,5.17-3.32,4.92-5.73-3.47-2.59-12,0-10.32,5.28.9,2.85,3.52,1.53,5.4.42Zm-1.35-22.89c-.7.55-2,2.3-1.35,3.24,1.39,2.22,4.88-2.07,4.78-3.62a2.86,2.86,0,0,0-3.42.35Zm24.31,48c0,3.27,5,1,5.36-1.37-.55-1.39-.83-3.13-2.73-2.49a5.7,5.7,0,0,0-2.62,3.83ZM352.33,365l-1.08.17.95.45Zm53-184.26c.75,2.66,2.45-.34,2.88-1.3-.93-1.83-3.36-.47-2.87,1.27Zm3.23,10.7c.16,1.37,1.81-.18,2.55-1-1,.06-2.66.16-2.56.94Zm17-5.07c5.08-3.88,5.26-4,7.63-8.41L427.15,179c-2.22-4.34-5-8.41-6.82-13-.41-1-.44-2.1-1.55-2.37a1.75,1.75,0,0,0-2,1c-1.14,2,.55,4.44.85,6.43l-3.38,4a82.82,82.82,0,0,1-2.42,15.09,8.08,8.08,0,0,1,4.69,4.6c1.95-1.35,4.72-.28,6.51-2.13-1-1.54-2.62-2.59-3.46-4.19a7.6,7.6,0,0,1-.35-5.35c.56-1.8,2.32-2.93,3.87-1.4,1.32,1.3.55,3.78,2.5,4.56Zm-9.95,64.61c.72-.3,0-2.52-1.58-1.35-1.87,1.42.1,2,1.57,1.33Zm1.5-94.63c.29-.35-.09-.5-.45-.64.12.36.3.78.44.61Zm.37,46.67c.11,2.39,4.19,4,5.47,1.94a5.15,5.15,0,0,0-3.33-3.17c-1.18-.48-2.21-.3-2.15,1.2Zm4.66-49.15c.19-.32-.14-.47-.48-.6.16.35.37.73.46.57ZM435.89,167a8.93,8.93,0,0,1,5-1.91,5.57,5.57,0,0,0-4.65-3.1c-1.83.89-4.42,1.52-5.6,3.26-.84,1.22-1.68,4.23.67,4.36,1.49.08,3.4-1.87,4.54-2.65Zm-1.72,10.46a5.92,5.92,0,0,0,4.26-1.81,8.71,8.71,0,0,0-4.27,1.78ZM435.3,328a3.56,3.56,0,0,0,3.11.92c-1-1.21-1.63-2.17-3.12-.95Zm4.2,2.12c.42-.31,0-.56-.45-.76.09.41.25.88.44.73Zm-.22-155c3.44-1.68,4.47-5,5.5-8.53l-3.36-1q-1.07,4.76-2.15,9.51Zm.81,9.14c-1.43,1.38,0,3,.66.89l-.67-.93Zm.6,226.9-.4-.84c-.56.7-.56.73-.18,1.54Zm2.09-65.94c.88,1.39,2.57.16.82-.53l-.83.5Zm.16-91.87,1,.42.08-.67Zm8,79.29a9.39,9.39,0,0,0,6.06-.12,10.15,10.15,0,0,0-3.34-6.62c-.8-.64-2.14-1.36-2.95-.33-.59.76.13,1.89-.39,2.72l-6.14,2.32c2.25.65,4.49,1.36,6.75,2Zm-5.3,81.78c.3.71.08.64,1.14.37-.3-.72-.08-.65-1.15-.41Zm3.49-196.68a22.26,22.26,0,0,0-2.25,8.07L450.2,227c2.4-5.75,4.45-11.25,2-18.26l-3.16,8.89Zm1.13,174.79-.24-.62-.38.55Zm7-95.43c-.86-.87-2.49-3.37-3.76-3.52s-1.6,1.36-1.2,2.37a4.56,4.56,0,0,0,2.58,2.43c1.5.5,1.81-.11,2.37-1.31Zm-3.45-146.35c-.09-.08-.19-.14-.28-.21s0-.1,0-.14H454A2.37,2.37,0,0,0,453.78,150.72Zm2.1-.35H454C454.6,149.29,455.24,149.58,455.88,150.37Zm3.61,56.4a7,7,0,0,0,2.61-7.9c-1.82-1.18-6.88-5.55-6.65-.52a26.15,26.15,0,0,0,1.35,5.43c.66,2.29.61,2.25,2.68,3Zm-3.34-56.08-.27-.32h.47a2.43,2.43,0,0,0,0,.3ZM457.29,393c-1.81,1.25.52,2.76,1.76,2.72.76-.58,1.08-.88.6-1.86-.39-.78-1.59-1.43-2.37-.9Zm2.37,36.48c1.34-1.31,1-3.28-1.24-2.67-2.54.74.07,2,1.23,2.63Zm-.59-267a10.06,10.06,0,0,0,.79,6c2.12-.13,4.06-4.07,5.29-5.76,1.35-1.87,3.84-4,2.9-6.5-1.69-4.55-7.95,4.7-9,6.25Zm5.24,152.14c-2.44,1.29,1.25,3.48,2.71,2.9a1.61,1.61,0,0,0,.77-2.12c-.58-1-2.51-.76-3.48-.81Zm0,33.8c-.55,2.56,2,.56,2.61,0-.55-1.08-2.23-1.77-2.61,0Zm1.75,74.21c2,0,2.46-3.16.33-3.35-2.05,0-2.6,3.28-.34,3.31Zm6.46-202.19c-.75-1.33-1.68-4.26-3.35-4.72-2-.51-3.05,1.88-3.93,3.15,1.65,2.54,2.3,5.33,4.62,7a17.29,17.29,0,0,0,2.65-5.5Zm-3-9.21c-.5-1-1.78-3.45-2.62-1.13s1.44,1.6,2.61,1.1Zm-1.21,253.05c1.3.82,2.41-.34,3.6-1-.08-1.12,0-1.58-1.15-2a3.11,3.11,0,0,0-2.89.57,1.51,1.51,0,0,0,.43,2.42Zm1.27-156.46c.85-2.54-1-1.14-2.05-.15a1.71,1.71,0,0,0,2.05.12Zm5.86,92.23a7.17,7.17,0,0,0,5-.06c1.73-.47,3.44-1,5.17-1.5a13.52,13.52,0,0,0-2.49-6.67,10.93,10.93,0,0,0-6.06-4.34,40.57,40.57,0,0,0-3.79,3.27c-1.12,1.26-.9,2.33-1.16,3.9l2.82.74c.15,1.52.31,3.07.46,4.62Zm2.65-40.95c-.84-.25-2.66,0-2.82,1.08-.11.83,1.29,1.61,1.93,1.84,1.35.48,2.2.29,2.85-.92-.62-.89-.82-1.69-2-2Zm.7-52.85a1.14,1.14,0,0,0-1.26-.08,1.18,1.18,0,0,0-.57,1.14,6,6,0,0,0,2,2.93c1,.26,1.24-.58,1.67-1.29-.45-.75-1-2.31-1.85-2.74Zm-.61-121.51c-.14-.26-.33-.38-.82-.52l.81.49Zm-.24-26.34a1.25,1.25,0,0,0-.33.52l.32-.55Zm10.07-3c-3.22-.06-7.25-.63-9.25,2.43a11.57,11.57,0,0,0,6.3,2.29c2.55-.35,2.87-2.69,3-4.76Zm-6.41,17.75c.56,2.45,2.66-.6,3.09-1.34-.77-.71-1.23-.91-2.23-.2-.53.36-1,.79-.86,1.51Zm2,201.29c-.67.1-1.16.48-1,1.11a1.76,1.76,0,0,0,1.62,1c1,0,.69.16,1-.85-.38-.7-.69-1.47-1.69-1.32Zm.85-85.57c-.57,2.47,1.82.73,2.42,0,.43-.51-2-1.91-2.42,0Zm2.18,153.41a11.17,11.17,0,0,0,4.15-1.73c-1.54-1.23-3-2.27-4.6-.37-.74.9-.92,1.87.45,2.06Zm.82,9.65a6.54,6.54,0,0,0-.66,6.79c1.46-.8,2.52-1.46,2.73-3.36s-1-2.26-2.07-3.46Zm-1.15,18.24c1.5-.2,5.14-.74,3.58-2.59-.9-1.05-2.55,1.1-3.58,2.55Zm3.24-258.66c-1.37-1.18-3-.14-.95.48l.95-.51Zm1.06-56.43a1.59,1.59,0,0,0-1.88,0h1.88Z"/><path class="cls-1" d="M834.56,476.29c-.54.6-1,1.63-1.78,1.89a12.48,12.48,0,0,1-3-.15c-2.33-.09-4.65-.13-7-.15-4.63,0-9.3.06-13.94.08s-8.88-1.67-13.48-2c-4.4-.36-8.61,1.08-12.9.8l-2-1.42-4.82,2.61c-4.56,0-10.14,1-14.12-1.81s-5-8-6.48-12.44c-.14-2.18,1.64-2.78,2.94-4-.1-1.52-.18-3.13-.27-4.66a8.65,8.65,0,0,0-4.84-1.55,10.14,10.14,0,0,1-4.27-.94c-2.72-1.44-3.82-4.76-5.41-7.23a160.29,160.29,0,0,1-11.09-17.5,31.48,31.48,0,0,0-5.17-8.33,40.32,40.32,0,0,1-3.53-3.51,41.58,41.58,0,0,1-2.58-4.55c-1.78-3.18-3.77-6.25-5.58-9.4s-3.21-6.53-5-9.66-3.83-6-5.83-9c-1.46-2.16-3.59-5.52-6.46-5.78-3.49-.33-4.25,3-5.48,5.54a75.06,75.06,0,0,1-5.7,8.32c-4.22,6.43-7.63,13.37-11.94,19.74-1.83,2.7-3.89,5.24-5.74,7.93a51,51,0,0,0-4.87,10c-1.39,3.35-4.52,5.81-6.3,9a86.86,86.86,0,0,1-6.75,9.94c-2.11,2.82-2.74,6.17-4.59,9.11a26.23,26.23,0,0,1-7.56,7.32c-1.95,2.48-1.34,6.32-2.87,9.12a9.14,9.14,0,0,1-6,4.74,35.8,35.8,0,0,1-10.54-.09,22.26,22.26,0,0,1-5.25-.88q-2.67-1.18-5.2-2.63c-.28,1.61-.54,3.06-.79,4.52-9.22.4-18.25-1.07-27.46-1.39-4.89-.16-9.79-.23-14.67-.42a6,6,0,0,1-6.62-5.62c-2.1-9.45-1.35-18.57-.91-28.13s-.93-19.32-.35-29c.28-4.63,1.46-9.17,1.72-13.77s-1.16-9.15-1.51-13.62a119.58,119.58,0,0,1-.26-14.29c.19-4.2,1.92-8.21,1.8-12.43-.08-2.14-.78-4.21-1-6.33a62.54,62.54,0,0,1-.39-7c-.06-4.74-.17-9.5,0-14.24.43-9.55,2-19,.95-28.61-.26-2.21-.76-4.39-.89-6.61-.14-2.38.09-4.77.17-7.15.15-4.81.06-9.7,0-14.5s-.71-9.52-.57-14.34.32-9.92.49-14.88c.32-9.75-.36-19.48-.25-29.21s.18-19.45.32-29.18c.14-9.91.23-19.8,0-29.72-.1-4.06-.45-7.77,4-9.51a30.56,30.56,0,0,1,12.7-1.39,34.4,34.4,0,0,1,6.21,1.7,15.56,15.56,0,0,0,6.69,0,128,128,0,0,1,14.21-1.65,103.69,103.69,0,0,1,14.64.35c4.28.52,5.2,6.25,5.28,9.78.23,9.7-.21,19.36.3,29.07.52,9.49-.79,19-.25,28.46a47,47,0,0,1-.15,6.92,51.56,51.56,0,0,0,.4,7.86,113.39,113.39,0,0,1,0,14.16c-.29,4.55.09,9.06-.29,13.6-.4,4.71.31,9.31.28,14a18.13,18.13,0,0,1-2.91,11.32c4.69,4.37,2.76,11.29,2.63,17-.17,7.35,0,14.7.06,22,.09,14.24-.09,28.43.77,42.65,1.93.93,2.44,1.39,4.45.28a11.84,11.84,0,0,0,4.1-3.89c1-1.49,1.43-3.24,2.25-4.82l3.34-6.39a94.57,94.57,0,0,1,6.94-11.6c2.6-3.57,4.5-7.43,6.82-11.17,2.43-3.91,4.85-7.82,7.38-11.66,1.12-1.71,2.23-3.43,3.22-5.23,1.11-2,1.71-4.39,3-6.25,1.86-2.7,5.15-4.79,8.09-2.25,3.33,2.89,5.14,7.83,7.86,11.28.84,1.06,3.24,3.9,4.68,2.13,1.22-1.49-1.47-4.77-2.19-6.16a14.34,14.34,0,0,1-1.48-6.65,12.27,12.27,0,0,0-2.66-6.66h-4.76c-.26-2.86,3.53-6.62,5.35-9l0,0v-4.33l6.64-8.43c1.18-3.46,1.64-7.32,3.83-10.36a44.45,44.45,0,0,0,6.21-8.47,34.59,34.59,0,0,1,5.4-9.65c2.5-2.91,3.17-6.53,5.28-9.73,4.27-6.52,9.06-12.65,13.12-19.32a97,97,0,0,0,5.58-10.52,7.61,7.61,0,0,1,7.32-5c1.37-1.58-.09-3.15,0-5.12a156.39,156.39,0,0,1,10.15-17.45c3.87-5.36,6.46-11.36,10-16.89,1.76-2.72,3.64-5.37,5.32-8.14a9,9,0,0,1,6-4.94,35.42,35.42,0,0,1,20.46,1c8.67-.79,17.38-1.47,26.1-1.48,4.32,0,8.64.15,13,.54,2.26.2,8.63-.59,9.25,2.33s-2.59,7.91-4.17,10.25c-2.31,3.45-4.79,6.8-7.12,10.25s-4.62,7-6.8,10.61a29.86,29.86,0,0,1-3.06,4.65c-1.34,1.47-2.94,2.7-4.33,4.11a127.8,127.8,0,0,1-7.15,15.88,44.85,44.85,0,0,1-4.06,6.57,50.54,50.54,0,0,0-5.08,7.06c-3,4.89-5.27,10.17-8.29,15.05-3.24,5.27-7.2,10.05-10.57,15.25A23.39,23.39,0,0,0,766,261a46.64,46.64,0,0,1-2.17,5.85,35.18,35.18,0,0,1-4.16,5.11c-2.61,3.37-4.13,7.57-6.63,11.06a44.13,44.13,0,0,1-9.35,9.65c.71,6.1.71,6.1-5.68,11.12a47.72,47.72,0,0,1-2.9,10.81c.94,3.27,3.57,5.1,5.82,7.43,2.72,2.82,3.76,6.85,5.59,10.25a122.39,122.39,0,0,0,7.08,10.52,116.83,116.83,0,0,1,6.08,10.87c1.93,3.52,4.46,6.65,6.56,10.06,1,1.68,1.75,3.52,2.73,5.22a50.35,50.35,0,0,0,3.32,4.27,28.38,28.38,0,0,1,3.14,4.88c.76,1.73,1.06,3.6,1.87,5.32a89.28,89.28,0,0,0,6.48,9.95c2.84,1.42,1.7,4.28,2.32,6.39l4,2.5c-.27,7.12-.43,7.68-4,14.1.88,3,9.12.37,11.17.12A96.31,96.31,0,0,1,810,434.93a93.15,93.15,0,0,0,6.66,11.27c2.7,3.67,2.48,8,2.61,12.36l7.55,3.67a17.9,17.9,0,0,1,4,6.6C831.88,471.42,833.24,473.79,834.56,476.29ZM565.42,231.19c-1.62.46-1.28,2.92.45,2.59C567.41,233.48,567,231.17,565.42,231.19Zm3.52,196a1.71,1.71,0,0,0-1.85-.2A1.65,1.65,0,0,0,568.94,427.21Zm4.14-144c-1.6,0-1.05,2.2-.8,2.1C573.16,285,575.54,283.16,573.08,283.19Zm9.34.25a3.2,3.2,0,0,0,3.94-.08A3.41,3.41,0,0,0,582.42,283.44Zm2.5,165.75c1.34,2.46,4.65-1.69,4.72-3.17-.94-1.31-2-.91-3.19.13C585.77,446.75,584.41,448.25,584.92,449.19Zm8.83-96c-.3-1-.36-.88-1.38-.6C592.67,353.56,592.73,353.41,593.75,353.15Zm.11,7.31-.26-.93C592.11,359.51,592.31,360.89,593.86,360.46Zm11-139.33c-1.88.7-.68,3.27,1.11,2.9C607.68,223.17,606.76,220.42,604.88,221.13Zm45.35,208.61c2.68-.37-.62-3.86-1.27-4.79-.8.95-1.35,1.66-.9,3,.3.89,1.11,2,2.17,1.83ZM693,303.35c3.77-.85,3.93-4.5,2.67-7.33-1.81,1-4.22,1.92-4.91,4.1-.54,1.71.18,3.7,2.24,3.24ZM696,327.52c.6-1.08.12-1.58-.92-2.27-.67-.45-1.06.44-1,.92s1.4,1.07,1.88,1.36Zm8.85-40a2.23,2.23,0,0,0,0-3.67,5.85,5.85,0,0,0-6.13-.46c.18,2.63,3.42,6.16,6.14,4.14Zm12,23a5.21,5.21,0,0,0,5.59-.07,3.54,3.54,0,0,0-5.59.08Zm4.45,44.72c1,.26.82.37,1.23-.26C721.41,354.69,721.65,354.59,721.26,355.24Zm1.37-52.61-1.12.21,1,.5Zm.72-11.73c-1.31,1-.17,2.88.48,1ZM731.56,218c-.71-1-1.06-1.11-1.95-.19-.5.53-1.42,2.24-1.12,3a1.6,1.6,0,0,0,2.13.55C731.66,220.73,731.46,219,731.56,218Zm3.24,132.07c0,3.13,3.38,1.77,3.78-.44-.5-.8-.65-1.74-1.71-1.86C735.63,347.63,734.79,349,734.8,350.06Zm6.05-79.22a21.68,21.68,0,0,0-6,1.4,9.18,9.18,0,0,0,5.13,2.5c1,.12,4.22.43,4.7-.75.71-1.73-2.63-3.1-3.84-3.15Zm-3,158.64c.6-1,3.58-4.43,1.68-5.2C737.23,423.34,737.9,428.53,737.9,429.48Zm4.47-149.12-1.15.26,1.08.42Zm3,141.84c.82-.31.57-.91.45-1.55-.21-1.21-.73-1.36-1.77-1.44-.76.62-1.09.83-.62,1.86C743.66,421.64,744.61,422.47,745.32,422.2Zm10.47-53.38c1.41-.27,3.48-.15,4.2-1.7s-.34-2.5-1.74-2.66-3.72-.29-4.53.93C752.6,367.1,754.32,368.39,755.79,368.82Zm-1.13-99.68c1.47-1.28,3.18-4.65.43-5.17C755,265.71,754.8,267.42,754.66,269.14Zm3.27,174.6c.64.38,2.78,1.81,2.42,0-.11-.55-1.12-.88-1.55-.84-.82.07-.64-.08-.87.88ZM762.73,233l.75-.21C763.5,231.51,762.39,231.7,762.73,233Zm10.8,209.3c.67.38,5.87,3.6,4.91.24C777.9,440.7,774.48,441.15,773.53,442.3ZM784.65,464c1.07-.18,1.34-1.47,1.25-2.41a2.41,2.41,0,0,0-2.24-2.45c-1.9,1-1.68,5.3,1,4.86Zm-1-282,1.14-.17-1-.47Zm11.61,12.15c-1.06-.34-2.06-.05-1.83,1.21.44,2.46,2.83,2,4.36,1.34-.69-.85-1.44-2.18-2.53-2.54ZM805.51,454.4c1.16,2.27,6.51,4,6.66.11.17-4.07-5.35-2.12-6.67-.11Zm1,7.89a1.23,1.23,0,0,0,1-.31c.11-.81-1.58-.27-1.81-.19l.83.5Z"/><path class="cls-1" d="M281.38,610.24c1.45,6.42,5.73,10.21,13.67,10.21,8.84,0,12.21-4.41,12.21-9.66,0-5.45-2.41-8.83-13-11.46-10.21-2.55-14.63-5.86-14.63-12.83,0-6.36,4.62-12.29,15-12.29,10.62,0,15.11,6.49,15.73,12.35h-3.86c-1.11-5.17-4.49-8.9-12.09-8.9-7,0-10.76,3.24-10.76,8.63s3.17,7.38,12.08,9.59c13.6,3.38,15.6,8.83,15.6,14.63,0,7.11-5.18,13.26-16.36,13.26-12.08,0-16.5-7-17.4-13.53Z"/><path class="cls-1" d="M372.82,578.35H356.6V574.9h36.3v3.45H376.61v44.86h-3.79Z"/><path class="cls-1" d="M445.9,574.9v29.27c0,12.83,7.24,16.15,14.08,16.15,8.07,0,14.08-3.39,14.08-16.15V574.9h3.79V604c0,15.11-8,19.81-18,19.81-9.53,0-17.81-5.18-17.81-19.19V574.9Z"/><path class="cls-1" d="M532.78,574.9h16c13.25,0,22.43,9.25,22.43,23.74s-9,24.57-22.5,24.57H532.78Zm3.72,44.86h11.67c12.76,0,19.05-9,19.05-20.91,0-10.63-5.67-20.5-19.05-20.5H536.5Z"/><path class="cls-1" d="M627,574.9v48.31h-3.73V574.9Z"/><path class="cls-1" d="M722.49,598.71c0,13.19-7,25.19-22,25.19-13.6,0-21.53-11-21.53-24.84,0-13.67,7.66-24.85,22-24.85C714.28,574.21,722.49,584.63,722.49,598.71Zm-39.48.14c0,11.11,6.14,21.6,17.73,21.6,12.5,0,17.74-10.21,17.74-21.67,0-11.25-5.93-21.12-17.6-21.12C688.46,577.66,683,587.94,683,598.85Z"/><path class="cls-2" d="M801.3,45.27a23.19,23.19,0,0,0-5.24.61l-.67.17h-.06a22.44,22.44,0,0,0,5.8,44.07h.17c.83,0,1.61-.06,2.39-.11a22.44,22.44,0,0,0-2.39-44.74ZM791.21,49l.67.83C791.21,51.73,789.87,50.34,791.21,49Zm-2.62,22c-.67-1.56-1.39-3.57.11-4.91a3.28,3.28,0,0,1,2.46-.72,3.24,3.24,0,0,1,2.23,1.34Zm12.26,8.35c.89.34.78.39.5,1.23C800.46,80.31,800.57,80.26,800.85,79.36Zm1.84-12.31c-1.11-.17-3.29-1-3.4-2.4s1.73-1.89,2.9-2.06c1.17.34,4,.56,4.06,2.23S804,67.16,802.69,67.05Zm8.08,15.6c-.67-1,.61-2.73,1.34-3.29A2.77,2.77,0,0,1,815.5,79C815.62,80.53,812.16,84.82,810.77,82.65Z"/><path class="cls-1" d="M847.28,69.21v21h-3.53v-45h16.13c8.87,0,13.56,4.76,13.56,11.83A10.19,10.19,0,0,1,865,67.61c4.62,1.09,7.71,4.11,7.71,11.76V81.1c0,3.15-.26,7.39.57,9.13h-3.53c-.84-1.93-.64-5.53-.64-9.38V79.69c0-7.39-2.19-10.48-10.8-10.48Zm0-3.21h10.87c7.9,0,11.57-3,11.57-8.87,0-5.53-3.61-8.68-10.61-8.68H847.28Z"/><path class="cls-1" d="M910.84,68.12h-23V87H913l-.51,3.21H884.42v-45H912v3.21h-24.1V64.91h23Z"/><path class="cls-1" d="M955.56,78.21c-2.12,7.13-7.39,12.53-16.9,12.53-12.92,0-19.74-10.28-19.74-22.94,0-12.15,6.69-23.2,19.8-23.2,9.71,0,15.43,5.4,16.9,12.92h-3.46c-2.06-5.85-5.85-9.71-13.63-9.71-11.18,0-15.87,10.22-15.87,19.92s4.62,19.8,16.13,19.8c7.32,0,11.05-3.79,13.3-9.32Z"/></svg>