<svg id="Layer_1" data-name="Layer 1" xmlns="http://www.w3.org/2000/svg" viewBox="0 0 111.87 46.14"><defs><style>.cls-1{stroke-width:9; fill: rgba(245, 245, 245, 0.5);;}</style></defs><path class="cls-1" d="M3.53,24.61v21H0V.61H16.13C25,.61,29.69,5.37,29.69,12.44A10.19,10.19,0,0,1,21.25,23C25.87,24.1,29,27.12,29,34.77V36.5c0,3.15-.26,7.39.57,9.13H26c-.84-1.93-.64-5.53-.64-9.38V35.09c0-7.39-2.19-10.48-10.8-10.48Zm0-3.21H14.4c7.9,0,11.57-3,11.57-8.87C26,7,22.36,3.85,15.36,3.85H3.53Z"/><path class="cls-1" d="M67.09,23.52h-23V42.4H69.25l-.51,3.21H40.67V.61H68.25V3.82H44.15V20.31h23Z"/><path class="cls-1" d="M111.81,33.61c-2.12,7.13-7.39,12.53-16.9,12.53C82,46.14,75.17,35.86,75.17,23.2,75.17,11.05,81.86,0,95,0c9.71,0,15.43,5.4,16.9,12.92h-3.46c-2.06-5.85-5.85-9.71-13.63-9.71-11.18,0-15.87,10.22-15.87,19.92S83.53,42.93,95,42.93c7.32,0,11-3.79,13.3-9.32Z"/></svg>