<svg id="Layer_1" data-name="Layer 1" xmlns="http://www.w3.org/2000/svg" viewBox="0 0 444.92 49.69"><defs><style>.cls-1{fill:#fff;}</style></defs><path class="cls-1" d="M3.81,36c1.45,6.42,5.73,10.21,13.67,10.21,8.84,0,12.21-4.41,12.21-9.66,0-5.45-2.41-8.83-13-11.46C6.48,22.57,2.06,19.26,2.06,12.29,2.06,5.93,6.68,0,17.06,0,27.68,0,32.17,6.49,32.79,12.35H28.93c-1.11-5.17-4.49-8.9-12.09-8.9-7,0-10.76,3.24-10.76,8.63s3.17,7.38,12.08,9.59c13.6,3.38,15.6,8.83,15.6,14.63,0,7.11-5.18,13.26-16.36,13.26C5.32,49.56.9,42.56,0,36Z"/><path class="cls-1" d="M95.25,4.14H79V.69h36.3V4.14H99V49H95.25Z"/><path class="cls-1" d="M168.33.69V30c0,12.83,7.24,16.15,14.08,16.15,8.07,0,14.08-3.39,14.08-16.15V.69h3.79v29.1c0,15.11-8,19.81-18,19.81-9.53,0-17.81-5.18-17.81-19.19V.69Z"/><path class="cls-1" d="M255.21.69h16c13.25,0,22.43,9.25,22.43,23.74S284.64,49,271.14,49H255.21Zm3.72,44.86H270.6c12.76,0,19-9,19-20.91,0-10.63-5.67-20.5-19-20.5H258.93Z"/><path class="cls-1" d="M349.43.69V49H345.7V.69Z"/><path class="cls-1" d="M444.92,24.5c0,13.19-7,25.19-22,25.19-13.6,0-21.53-11-21.53-24.84,0-13.67,7.66-24.85,22-24.85C436.71,0,444.92,10.42,444.92,24.5Zm-39.48.14c0,11.11,6.14,21.6,17.73,21.6,12.5,0,17.74-10.21,17.74-21.67,0-11.25-5.93-21.12-17.6-21.12-12.42,0-17.88,10.28-17.88,21.19Z"/></svg>